<svg width="135" height="135" viewBox="0 0 135 135" fill="none" xmlns="http://www.w3.org/2000/svg">
<rect width="135" height="135" rx="37" fill="#EFC944"/>
<path fill-rule="evenodd" clip-rule="evenodd" d="M80.3594 54.2656C80.3594 52.1895 79.5346 50.1984 78.0666 48.7303C76.5985 47.2622 74.6074 46.4375 72.5312 46.4375H62.0938C60.0176 46.4375 58.0265 47.2622 56.5584 48.7303C55.0904 50.1984 54.2656 52.1895 54.2656 54.2656H51.6562C49.5801 54.2656 47.589 55.0904 46.1209 56.5584C44.6529 58.0265 43.8281 60.0176 43.8281 62.0938V82.9688C43.8281 85.0449 44.6529 87.036 46.1209 88.5041C47.589 89.9721 49.5801 90.7969 51.6562 90.7969H82.9688C85.0449 90.7969 87.036 89.9721 88.5041 88.5041C89.9721 87.036 90.7969 85.0449 90.7969 82.9688V62.0938C90.7969 60.0176 89.9721 58.0265 88.5041 56.5584C87.036 55.0904 85.0449 54.2656 82.9688 54.2656H80.3594ZM72.5312 51.6562H62.0938C61.4017 51.6562 60.738 51.9312 60.2486 52.4205C59.7593 52.9099 59.4844 53.5736 59.4844 54.2656H75.1406C75.1406 53.5736 74.8657 52.9099 74.3764 52.4205C73.887 51.9312 73.2233 51.6562 72.5312 51.6562ZM51.6562 59.4844H82.9688C83.6608 59.4844 84.3245 59.7593 84.8139 60.2486C85.3032 60.738 85.5781 61.4017 85.5781 62.0938V82.9688C85.5781 83.6608 85.3032 84.3245 84.8139 84.8139C84.3245 85.3032 83.6608 85.5781 82.9688 85.5781H51.6562C50.9642 85.5781 50.3005 85.3032 49.8111 84.8139C49.3218 84.3245 49.0469 83.6608 49.0469 82.9688V62.0938C49.0469 61.4017 49.3218 60.738 49.8111 60.2486C50.3005 59.7593 50.9642 59.4844 51.6562 59.4844Z" fill="#F8F8F8"/>
</svg>
