<svg width="135" height="135" viewBox="0 0 135 135" fill="none" xmlns="http://www.w3.org/2000/svg">
<rect width="135" height="135" rx="37" fill="#EF6944"/>
<path d="M51.6562 43.8281H46.4375C44.9964 43.8281 43.8281 44.9964 43.8281 46.4375V51.6562C43.8281 53.0974 44.9964 54.2656 46.4375 54.2656H51.6562C53.0974 54.2656 54.2656 53.0974 54.2656 51.6562V46.4375C54.2656 44.9964 53.0974 43.8281 51.6562 43.8281Z" stroke="#F8F8F8" stroke-width="5.21875" stroke-linecap="round" stroke-linejoin="round"/>
<path d="M88.1875 43.8281H82.9688C81.5276 43.8281 80.3594 44.9964 80.3594 46.4375V51.6562C80.3594 53.0974 81.5276 54.2656 82.9688 54.2656H88.1875C89.6286 54.2656 90.7969 53.0974 90.7969 51.6562V46.4375C90.7969 44.9964 89.6286 43.8281 88.1875 43.8281Z" stroke="#F8F8F8" stroke-width="5.21875" stroke-linecap="round" stroke-linejoin="round"/>
<path d="M88.1875 80.3594H82.9688C81.5276 80.3594 80.3594 81.5276 80.3594 82.9688V88.1875C80.3594 89.6286 81.5276 90.7969 82.9688 90.7969H88.1875C89.6286 90.7969 90.7969 89.6286 90.7969 88.1875V82.9688C90.7969 81.5276 89.6286 80.3594 88.1875 80.3594Z" stroke="#F8F8F8" stroke-width="5.21875" stroke-linecap="round" stroke-linejoin="round"/>
<path d="M51.6562 80.3594H46.4375C44.9964 80.3594 43.8281 81.5276 43.8281 82.9688V88.1875C43.8281 89.6286 44.9964 90.7969 46.4375 90.7969H51.6562C53.0974 90.7969 54.2656 89.6286 54.2656 88.1875V82.9688C54.2656 81.5276 53.0974 80.3594 51.6562 80.3594Z" stroke="#F8F8F8" stroke-width="5.21875" stroke-linecap="round" stroke-linejoin="round"/>
<path d="M49.0469 54.2656V80.3594M85.5781 54.2656V80.3594M54.2656 49.0469H80.3594M54.2656 85.5781H80.3594" stroke="#F8F8F8" stroke-width="5.21875" stroke-linecap="round" stroke-linejoin="round"/>
</svg>
