<svg width="135" height="135" viewBox="0 0 135 135" fill="none" xmlns="http://www.w3.org/2000/svg">
<rect width="135" height="135" rx="37" fill="#C250BF"/>
<path fill-rule="evenodd" clip-rule="evenodd" d="M75.2706 45.9003C75.4071 45.7635 75.5692 45.655 75.7476 45.5809C75.926 45.5069 76.1173 45.4688 76.3105 45.4688C76.5037 45.4688 76.695 45.5069 76.8734 45.5809C77.0519 45.655 77.214 45.7635 77.3504 45.9003L89.1004 57.6502C89.2372 57.7867 89.3457 57.9488 89.4197 58.1272C89.4938 58.3056 89.5319 58.4969 89.5319 58.6901C89.5319 58.8833 89.4938 59.0746 89.4197 59.253C89.3457 59.4315 89.2372 59.5936 89.1004 59.73L83.5133 65.3171L81.0781 75.0491C80.8929 75.7901 80.5183 76.4703 79.9909 77.0228C79.4636 77.5754 78.8017 77.9814 78.0701 78.201L47.6816 87.319L56.7996 56.9276C57.0194 56.197 57.4252 55.5359 57.9772 55.0091C58.5292 54.4823 59.2085 54.1079 59.9486 53.9226L69.6806 51.4903L75.2706 45.9003ZM69.9831 54.4425L60.6625 56.7719C60.415 56.8337 60.188 56.9588 60.0036 57.1349C59.8192 57.3111 59.6838 57.5322 59.6108 57.7766L52.0615 82.9362L77.227 75.3869C77.4699 75.3133 77.6896 75.178 77.8646 74.9942C78.0397 74.8104 78.1641 74.5844 78.2258 74.3382L80.5581 65.0146L69.9831 54.4396V54.4425Z" fill="#F8F8F8"/>
<path fill-rule="evenodd" clip-rule="evenodd" d="M52.3181 82.8573L67.4991 70.4375C68.08 70.4375 68.648 70.2652 69.131 69.9424C69.6141 69.6197 69.9906 69.1609 70.2129 68.6241C70.4353 68.0874 70.4935 67.4967 70.3801 66.9269C70.2668 66.3571 69.987 65.8337 69.5762 65.4229C69.1654 65.0121 68.6419 64.7323 68.0721 64.6189C67.5023 64.5056 66.9117 64.5638 66.3749 64.7861C65.8382 65.0084 65.3794 65.3849 65.0566 65.868C64.7338 66.3511 64.5616 66.919 64.5616 67.5L52.1418 82.681L52.0654 82.9336L52.3181 82.8573Z" fill="#F8F8F8"/>
</svg>
